<?xml version="1.0" encoding="UTF-8" standalone="no"?>
<!-- Created with Inkscape (http://www.inkscape.org/) -->

<svg
   xmlns:dc="http://purl.org/dc/elements/1.1/"
   xmlns:cc="http://creativecommons.org/ns#"
   xmlns:rdf="http://www.w3.org/1999/02/22-rdf-syntax-ns#"
   xmlns:svg="http://www.w3.org/2000/svg"
   xmlns="http://www.w3.org/2000/svg"
   xmlns:sodipodi="http://sodipodi.sourceforge.net/DTD/sodipodi-0.dtd"
   xmlns:inkscape="http://www.inkscape.org/namespaces/inkscape"
   id="svg3374"
   version="1.1"
   inkscape:version="0.91 r13725"
   xml:space="preserve"
   width="435"
   height="260.45001"
   viewBox="0 0 435 260.45001"
   sodipodi:docname="robot_pose_2d.svg"><metadata
     id="metadata3380"><rdf:RDF><cc:Work
         rdf:about=""><dc:format>image/svg+xml</dc:format><dc:type
           rdf:resource="http://purl.org/dc/dcmitype/StillImage" /><dc:title></dc:title></cc:Work></rdf:RDF></metadata><defs
     id="defs3378" /><sodipodi:namedview
     pagecolor="#ffffff"
     bordercolor="#666666"
     borderopacity="1"
     objecttolerance="10"
     gridtolerance="10"
     guidetolerance="10"
     inkscape:pageopacity="0"
     inkscape:pageshadow="2"
     inkscape:window-width="1221"
     inkscape:window-height="802"
     id="namedview3376"
     showgrid="false"
     inkscape:zoom="2.2367816"
     inkscape:cx="241.27683"
     inkscape:cy="80.09228"
     inkscape:window-x="74"
     inkscape:window-y="27"
     inkscape:window-maximized="0"
     inkscape:current-layer="g3384" /><g
     id="g3382"
     inkscape:groupmode="layer"
     inkscape:label="ink_ext_XXXXXX"
     transform="matrix(1.25,0,0,-1.25,0,260.45)"><g
       id="g3384"
       transform="scale(0.1,0.1)"><path
         d="m 1110.42,445.23 -458.818,667.53 403.828,277.56 c 48.3,33.19 104.21,48.97 161.96,48.97 121.09,0 250.38,-69.31 335.2,-192.7 127.78,-185.93 111.29,-418.961 -36.39,-522.442 L 1110.42,445.23 m 403.83,277.559 c 0.66,0.449 1.3,0.91 1.95,1.359 l 4.17,2.872 -6.12,-4.231"
         style="fill:#c8c7c7;fill-opacity:1;fill-rule:nonzero;stroke:none"
         id="path3386"
         inkscape:connector-curvature="0" /><path
         d="M 1520.37,727 1110.39,445.219 651.594,1112.76 1055.41,1390.3 c 149.56,102.79 371.91,38.53 497.15,-143.67 128.36,-186.77 111.2,-421.079 -38.35,-523.868 l 6.16,4.238 z"
         style="fill:none;stroke:#231f20;stroke-width:10;stroke-linecap:butt;stroke-linejoin:miter;stroke-miterlimit:4;stroke-dasharray:none;stroke-opacity:1"
         id="path3388"
         inkscape:connector-curvature="0" /><path
         d="m 52.0742,375.738 0,-338.6872"
         style="fill:none;stroke:#231f20;stroke-width:10;stroke-linecap:butt;stroke-linejoin:miter;stroke-miterlimit:4;stroke-dasharray:none;stroke-opacity:1"
         id="path3390"
         inkscape:connector-curvature="0" /><path
         d="M 52.0742,446.34 92.7227,346.852 52.0742,370.461 11.4297,346.852 52.0742,446.34"
         style="fill:#231f20;fill-opacity:1;fill-rule:nonzero;stroke:none"
         id="path3392"
         inkscape:connector-curvature="0" /><path
         d="m 357.48,40.6484 -308.6909,0"
         style="fill:none;stroke:#231f20;stroke-width:10;stroke-linecap:butt;stroke-linejoin:miter;stroke-miterlimit:4;stroke-dasharray:none;stroke-opacity:1"
         id="path3394"
         inkscape:connector-curvature="0" /><path
         d="M 428.086,40.6484 328.59,0 352.203,40.6484 328.59,81.3008 428.086,40.6484"
         style="fill:#231f20;fill-opacity:1;fill-rule:nonzero;stroke:none"
         id="path3396"
         inkscape:connector-curvature="0" /><path
         d="M 945.191,1102.58 1078.63,908.121"
         style="fill:none;stroke:#231f20;stroke-width:7.5;stroke-linecap:butt;stroke-linejoin:miter;stroke-miterlimit:4;stroke-dasharray:none;stroke-opacity:1"
         id="path3398"
         inkscape:connector-curvature="0" /><path
         d="m 925.715,1130.96 43.781,-28.78 -22.851,-1.72 -9.825,-20.7 -11.105,51.2"
         style="fill:#231f20;fill-opacity:1;fill-rule:nonzero;stroke:none"
         id="path3400"
         inkscape:connector-curvature="0" /><path
         d="M 1279.43,1050.58 1072.87,908.84"
         style="fill:none;stroke:#231f20;stroke-width:7.5;stroke-linecap:butt;stroke-linejoin:miter;stroke-miterlimit:4;stroke-dasharray:none;stroke-opacity:1"
         id="path3402"
         inkscape:connector-curvature="0" /><path
         d="m 1307.81,1070.05 -28.78,-43.77 -1.72,22.85 -20.7,9.82 51.2,11.1"
         style="fill:#231f20;fill-opacity:1;fill-rule:nonzero;stroke:none"
         id="path3404"
         inkscape:connector-curvature="0" /><path
         d="m 1459.05,1174.27 -114.59,-78.61"
         style="fill:none;stroke:#231f20;stroke-width:7.5;stroke-linecap:butt;stroke-linejoin:miter;stroke-miterlimit:4;stroke-dasharray:none;stroke-opacity:1"
         id="path3414"
         inkscape:connector-curvature="0" /><path
         d="m 1457.43,1173.15 c -7.08,1.32 -14.78,8.25 -18.9,13.91 11.06,-3.79 23.18,-5.4 34.83,-2.98 -6.57,-9.83 -8.81,-21.9 -9.77,-33.56 -3.74,6.51 -7.36,15.03 -6.16,22.63"
         style="fill:#231f20;fill-opacity:1;fill-rule:nonzero;stroke:none"
         id="path3416"
         inkscape:connector-curvature="0" /><path
         d="m 1085.52,901.859 c -6.45,-4.418 -15.27,-2.781 -19.7,3.672 -4.43,6.457 -2.79,15.278 3.66,19.699 6.46,4.43 15.28,2.79 19.71,-3.652 4.43,-6.469 2.78,-15.289 -3.67,-19.719"
         style="fill:#231f20;fill-opacity:1;fill-rule:nonzero;stroke:none"
         id="path3418"
         inkscape:connector-curvature="0" /><path
         d="m 1085.52,901.859 c -6.45,-4.418 -15.27,-2.781 -19.7,3.672 -4.43,6.457 -2.79,15.278 3.66,19.699 6.46,4.43 15.28,2.79 19.71,-3.652 4.43,-6.469 2.78,-15.289 -3.67,-19.719 z"
         style="fill:none;stroke:#231f20;stroke-width:10;stroke-linecap:butt;stroke-linejoin:miter;stroke-miterlimit:4;stroke-dasharray:none;stroke-opacity:1"
         id="path3420"
         inkscape:connector-curvature="0" /><path
         d="m 1077.5,913.551 462.5,0"
         style="fill:none;stroke:#231f20;stroke-width:7.5;stroke-linecap:butt;stroke-linejoin:miter;stroke-miterlimit:4;stroke-dasharray:40, 40;stroke-dashoffset:0;stroke-opacity:1"
         id="path3422"
         inkscape:connector-curvature="0" /><path
         d="m 1302.5,916.051 c -1.57,40.41 -18.8,64.48 -43.33,80.828"
         style="fill:none;stroke:#231f20;stroke-width:7.5;stroke-linecap:butt;stroke-linejoin:miter;stroke-miterlimit:4;stroke-dasharray:none;stroke-opacity:1"
         id="path3424"
         inkscape:connector-curvature="0" /><path
         d="m 1241.54,1008.63 31.6,-6.41 -12.66,-6.22 -0.86,-14.07 -18.08,26.7"
         style="fill:#231f20;fill-opacity:1;fill-rule:nonzero;stroke:none"
         id="path3426"
         inkscape:connector-curvature="0" /><g
         id="g3428"
         transform="scale(10,10)"><flowRoot
           xml:space="preserve"
           id="flowRoot4360"
           style="font-style:normal;font-weight:normal;font-size:12.5px;line-height:125%;font-family:sans-serif;letter-spacing:0px;word-spacing:0px;fill:#000000;fill-opacity:1;stroke:none;stroke-width:1px;stroke-linecap:butt;stroke-linejoin:miter;stroke-opacity:1"
           transform="matrix(0.8,0,0,-0.8,-7.845075,201.27876)"><flowRegion
             id="flowRegion4362"><rect
               id="rect4364"
               width="81.560738"
               height="56.270584"
               x="10.748314"
               y="175.09575"
               style="font-size:12.5px" /></flowRegion><flowPara
             id="flowPara4366">$Y_w$</flowPara></flowRoot><flowRoot
           transform="matrix(0.8,0,0,-0.8,41.300407,146.91007)"
           style="font-style:normal;font-weight:normal;font-size:12.5px;line-height:125%;font-family:sans-serif;letter-spacing:0px;word-spacing:0px;fill:#000000;fill-opacity:1;stroke:none;stroke-width:1px;stroke-linecap:butt;stroke-linejoin:miter;stroke-opacity:1"
           id="flowRoot4376"
           xml:space="preserve"><flowRegion
             id="flowRegion4378"><rect
               style="font-size:12.5px"
               y="175.09575"
               x="10.748314"
               height="56.270584"
               width="81.560738"
               id="rect4380" /></flowRegion><flowPara
             id="flowPara4382">$X_w$</flowPara></flowRoot><flowRoot
           transform="matrix(0.8,0,0,-0.8,125.18111,243.60103)"
           style="font-style:normal;font-weight:normal;font-size:12.5px;line-height:125%;font-family:sans-serif;letter-spacing:0px;word-spacing:0px;fill:#000000;fill-opacity:1;stroke:none;stroke-width:1px;stroke-linecap:butt;stroke-linejoin:miter;stroke-opacity:1"
           id="flowRoot4441"
           xml:space="preserve"><flowRegion
             id="flowRegion4443"><rect
               style="font-size:12.5px"
               y="175.09575"
               x="10.748314"
               height="56.270584"
               width="81.560738"
               id="rect4445" /></flowRegion><flowPara
             id="flowPara4447">$\theta_t$</flowPara></flowRoot><flowRoot
           xml:space="preserve"
           id="flowRoot4449"
           style="font-style:normal;font-weight:normal;font-size:12.5px;line-height:125%;font-family:sans-serif;letter-spacing:0px;word-spacing:0px;fill:#000000;fill-opacity:1;stroke:none;stroke-width:1px;stroke-linecap:butt;stroke-linejoin:miter;stroke-opacity:1"
           transform="matrix(0.8,0,0,-0.8,87.677241,225.36671)"><flowRegion
             id="flowRegion4451"><rect
               id="rect4453"
               width="81.560738"
               height="56.270584"
               x="10.748314"
               y="175.09575"
               style="font-size:12.5px" /></flowRegion><flowPara
             id="flowPara4455">$\omega_t$</flowPara></flowRoot><flowRoot
           xml:space="preserve"
           id="flowRoot4457"
           style="font-style:normal;font-weight:normal;font-size:12.5px;line-height:125%;font-family:sans-serif;letter-spacing:0px;word-spacing:0px;fill:#000000;fill-opacity:1;stroke:none;stroke-width:1px;stroke-linecap:butt;stroke-linejoin:miter;stroke-opacity:1"
           transform="matrix(0.8,0,0,-0.8,126.51283,266.78538)"><flowRegion
             id="flowRegion4459"><rect
               id="rect4461"
               width="81.560738"
               height="56.270584"
               x="10.748314"
               y="175.09575"
               style="font-size:12.5px" /></flowRegion><flowPara
             id="flowPara4463">$v_x$</flowPara></flowRoot><flowRoot
           xml:space="preserve"
           id="flowRoot4489"
           style="font-style:normal;font-weight:normal;font-size:12.5px;line-height:125%;font-family:sans-serif;letter-spacing:0px;word-spacing:0px;fill:#000000;fill-opacity:1;stroke:none;stroke-width:1px;stroke-linecap:butt;stroke-linejoin:miter;stroke-opacity:1"
           transform="matrix(0.8,0,0,-0.8,63.344317,189.19939)"><flowRegion
             id="flowRegion4491"><rect
               id="rect4493"
               width="81.560738"
               height="56.270584"
               x="10.748314"
               y="175.09575"
               style="font-size:12.5px" /></flowRegion><flowPara
             id="flowPara4495">$(x_t, y_t)$</flowPara></flowRoot></g><path
         d="m 1008.05,894.5 c -1.52,6.078 -2.33,12.469 -2.33,19.051 0,41.5 32.14,75.129 71.78,75.129 39.63,0 71.77,-33.629 71.77,-75.129"
         style="fill:none;stroke:#231f20;stroke-width:7.5;stroke-linecap:butt;stroke-linejoin:miter;stroke-miterlimit:4;stroke-dasharray:none;stroke-opacity:1"
         id="path3442"
         inkscape:connector-curvature="0" /><path
         d="m 1013.18,873.949 -19.059,26.012 13.549,-3.93 10.11,9.84 -4.6,-31.922"
         style="fill:#231f20;fill-opacity:1;fill-rule:nonzero;stroke:none"
         id="path3444"
         inkscape:connector-curvature="0" /><path
         d="m 949.434,1356.9 -236.766,-162.72 -0.051,0.06 c -8.73,-5.99 -20.332,-4.24 -25.945,3.93 -5.344,7.78 -2.609,18.92 6.121,24.92 l 0.051,-0.07 236.426,162.5 c 8.726,5.99 20.332,4.24 25.945,-3.92 5.344,-7.78 2.605,-18.93 -6.121,-24.94 l 0.34,0.24"
         style="fill:#231f20;fill-opacity:1;fill-rule:nonzero;stroke:none"
         id="path3452"
         inkscape:connector-curvature="0" /><path
         d="m 949.434,1356.9 -236.766,-162.72 -0.051,0.06 c -8.73,-5.99 -20.332,-4.24 -25.945,3.93 -5.344,7.78 -2.609,18.92 6.121,24.92 l 0.051,-0.07 236.426,162.5 c 8.726,5.99 20.332,4.24 25.945,-3.92 5.344,-7.78 2.605,-18.93 -6.121,-24.94 l 0.34,0.24 z"
         style="fill:none;stroke:#231f20;stroke-width:10;stroke-linecap:butt;stroke-linejoin:miter;stroke-miterlimit:4;stroke-dasharray:none;stroke-opacity:1"
         id="path3454"
         inkscape:connector-curvature="0" /><path
         d="m 821.055,1289.91 28.324,-41.21"
         style="fill:none;stroke:#231f20;stroke-width:20;stroke-linecap:butt;stroke-linejoin:miter;stroke-miterlimit:4;stroke-dasharray:none;stroke-opacity:1"
         id="path3456"
         inkscape:connector-curvature="0" /><path
         d="m 1207.48,473.488 236.77,162.742 0.06,-0.082 c 8.73,5.993 20.33,4.25 25.93,-3.91 5.36,-7.777 2.62,-18.937 -6.11,-24.937 l -0.06,0.078 -236.41,-162.488 c -8.73,-6.012 -20.34,-4.262 -25.95,3.91 -5.35,7.777 -2.61,18.929 6.12,24.929 l -0.35,-0.242"
         style="fill:#231f20;fill-opacity:1;fill-rule:nonzero;stroke:none"
         id="path3458"
         inkscape:connector-curvature="0" /><path
         d="m 1207.48,473.488 236.77,162.742 0.06,-0.082 c 8.73,5.993 20.33,4.25 25.93,-3.91 5.36,-7.777 2.62,-18.937 -6.11,-24.937 l -0.06,0.078 -236.41,-162.488 c -8.73,-6.012 -20.34,-4.262 -25.95,3.91 -5.35,7.777 -2.61,18.929 6.12,24.929 l -0.35,-0.242 z"
         style="fill:none;stroke:#231f20;stroke-width:10;stroke-linecap:butt;stroke-linejoin:miter;stroke-miterlimit:4;stroke-dasharray:none;stroke-opacity:1"
         id="path3460"
         inkscape:connector-curvature="0" /><path
         d="m 1335.86,540.488 -28.32,41.211"
         style="fill:none;stroke:#231f20;stroke-width:20;stroke-linecap:butt;stroke-linejoin:miter;stroke-miterlimit:4;stroke-dasharray:none;stroke-opacity:1"
         id="path3462"
         inkscape:connector-curvature="0" /><g
         id="g3464"
         transform="scale(10,10)" /><path
         d="m 1027.05,493 c 87.2,84.898 148.84,129.328 103.71,336.969"
         style="fill:none;stroke:#231f20;stroke-width:7.5;stroke-linecap:butt;stroke-linejoin:miter;stroke-miterlimit:4;stroke-dasharray:none;stroke-opacity:1"
         id="path3492"
         inkscape:connector-curvature="0" /></g></g></svg>